<svg width="351" height="396" viewBox="0 0 351 396" fill="none" xmlns="http://www.w3.org/2000/svg">
<rect x="20.407" y="322.43" width="48.9767" height="73.4651" rx="8.16279" fill="black"/>
<rect x="273.453" y="322.43" width="48.9767" height="73.4651" rx="8.16279" fill="black"/>
<rect y="12.2442" width="351" height="367.326" rx="20.407" fill="#F2F2F2"/>
<path d="M0 53.0581C0 33.8183 0 24.1983 5.97707 18.2213C11.9541 12.2442 21.5741 12.2442 40.814 12.2442H310.186C329.426 12.2442 339.046 12.2442 345.023 18.2213C351 24.1983 351 33.8183 351 53.0582V93.8721H0V53.0581Z" fill="#E42C02"/>
<path d="M53.0582 12.2442C53.0582 5.48191 58.5401 0 65.3024 0H285.698C292.46 0 297.942 5.48191 297.942 12.2442V12.2442H53.0582V12.2442Z" fill="#BB2300"/>
<rect x="12.2441" y="24.4884" width="326.512" height="261.209" rx="12.2442" fill="url(#paint0_linear)"/>
<path d="M12.2441 48.9768C12.2441 37.4328 12.2441 31.6609 15.8304 28.0746C19.4166 24.4884 25.1886 24.4884 36.7325 24.4884H310.186C321.73 24.4884 327.502 24.4884 331.088 28.0746C334.674 31.6609 334.674 37.4328 334.674 48.9768V93.8721H12.2441V48.9768Z" fill="#111111"/>
<rect x="142.849" y="293.86" width="61.2209" height="16.3256" rx="4.0814" fill="#EB5757"/>
<path d="M0 342.837H351V342.837C351 358.141 351 365.793 347.103 371.158C345.844 372.89 344.32 374.414 342.588 375.672C337.224 379.57 329.572 379.57 314.267 379.57H36.7325C21.4284 379.57 13.7763 379.57 8.41206 375.672C6.67961 374.414 5.15608 372.89 3.89738 371.158C0 365.793 0 358.141 0 342.837V342.837Z" fill="#832778"/>
<path d="M0 314.267H51.1365C56.3055 314.267 61.2818 316.229 65.0606 319.756L89.7907 342.837H0V314.267Z" fill="#832778"/>
<path d="M351 314.267H299.863C294.695 314.267 289.718 316.229 285.939 319.756L261.209 342.837H351V314.267Z" fill="#832778"/>
<rect x="8.16278" y="322.43" width="57.1395" height="20.407" rx="10.2035" fill="white"/>
<rect x="285.698" y="322.43" width="57.1395" height="20.407" rx="10.2035" fill="white"/>
<defs>
<linearGradient id="paint0_linear" x1="330.49" y1="71.4245" x2="14.7965" y2="289.394" gradientUnits="userSpaceOnUse">
<stop stop-color="#1F1F1F"/>
<stop offset="1" stop-color="#333333"/>
</linearGradient>
</defs>
</svg>
